<svg width="641" height="779" viewBox="0 0 641 779" fill="none" xmlns="http://www.w3.org/2000/svg">
<path fill-rule="evenodd" clip-rule="evenodd" d="M0 510.884C0 367.064 41.2664 306.811 143.701 266.208C246.202 226.26 259.787 0 392.821 0C526.222 0 705.901 456.471 617.448 687.838C529.027 919.434 261.423 623.912 180.985 728.798C100.39 833.186 0 654.304 0 510.884Z" fill="#F2F5F9"/>
<path fill-rule="evenodd" clip-rule="evenodd" d="M64 465.417C233.493 353.139 318.993 297 320.5 297C322.007 297 407.507 353.139 577 465.417V692.627C577 702.774 566.496 711 553.54 711H87.4604C74.5036 711 64 702.774 64 692.627V465.417Z" fill="#4065FA"/>
<path fill-rule="evenodd" clip-rule="evenodd" d="M64 465.417C233.493 353.139 318.993 297 320.5 297C322.007 297 407.507 353.139 577 465.417V692.627C577 702.774 566.496 711 553.54 711H87.4604C74.5036 711 64 702.774 64 692.627V465.417Z" fill="url(#paint0_linear_4311_27977)"/>
<rect x="103" y="49" width="435" height="632" rx="20" fill="white"/>
<rect x="103" y="49" width="435" height="632" rx="20" fill="url(#paint1_linear_4311_27977)"/>
<path fill-rule="evenodd" clip-rule="evenodd" d="M320.5 614.165L577 470V697.596C577 707.76 566.496 716 553.54 716H87.4604C74.5036 716 64 707.76 64 697.596V470L320.5 614.165Z" fill="#4065FA"/>
<path fill-rule="evenodd" clip-rule="evenodd" d="M320.5 614.165L577 470V697.596C577 707.76 566.496 716 553.54 716H87.4604C74.5036 716 64 707.76 64 697.596V470L320.5 614.165Z" fill="url(#paint2_linear_4311_27977)"/>
<path fill-rule="evenodd" clip-rule="evenodd" d="M64 470.419V469.806C70.6258 465.458 77.1232 461.159 83.5503 456.945L320.5 590.454L557.45 456.945C563.877 461.159 570.374 465.458 577 469.806V470.419L320.5 614.951L64 470.419Z" fill="url(#paint3_linear_4311_27977)"/>
<path fill-rule="evenodd" clip-rule="evenodd" d="M245.156 172.623C245.156 168.97 248.118 166.009 251.77 166.009H260.92C264.512 166.009 267.424 163.097 267.424 159.504C267.424 155.912 270.336 153 273.928 153H306.998C310.591 153 313.503 155.912 313.503 159.504C313.503 163.097 316.415 166.009 320.007 166.009H390.448C394.1 166.009 397.062 168.97 397.062 172.623V273.386C397.062 277.039 394.1 280 390.448 280H251.77C248.118 280 245.156 277.039 245.156 273.386V172.623Z" fill="#FFC62C"/>
<path fill-rule="evenodd" clip-rule="evenodd" d="M245.156 172.623C245.156 168.97 248.118 166.009 251.77 166.009H260.92C264.512 166.009 267.424 163.097 267.424 159.504C267.424 155.912 270.336 153 273.928 153H306.998C310.591 153 313.503 155.912 313.503 159.504C313.503 163.097 316.415 166.009 320.007 166.009H390.448C394.1 166.009 397.062 168.97 397.062 172.623V273.386C397.062 277.039 394.1 280 390.448 280H251.77C248.118 280 245.156 277.039 245.156 273.386V172.623Z" fill="url(#paint4_linear_4311_27977)"/>
<rect x="257.281" y="179.018" width="127.654" height="100.983" rx="6.61417" fill="white"/>
<rect x="257.281" y="179.018" width="127.654" height="100.983" rx="6.61417" fill="url(#paint5_linear_4311_27977)"/>
<rect x="245.156" y="191.586" width="151.906" height="10.1417" fill="url(#paint6_linear_4311_27977)"/>
<path fill-rule="evenodd" clip-rule="evenodd" d="M236.947 209.081C236.505 205.16 239.573 201.727 243.519 201.727H398.481C402.427 201.727 405.495 205.16 405.053 209.081L397.725 274.125C397.348 277.471 394.519 279.999 391.152 279.999H250.848C247.481 279.999 244.652 277.471 244.275 274.125L236.947 209.081Z" fill="#FFC62C"/>
<path fill-rule="evenodd" clip-rule="evenodd" d="M236.947 209.081C236.505 205.16 239.573 201.727 243.519 201.727H398.481C402.427 201.727 405.495 205.16 405.053 209.081L397.725 274.125C397.348 277.471 394.519 279.999 391.152 279.999H250.848C247.481 279.999 244.652 277.471 244.275 274.125L236.947 209.081Z" fill="url(#paint7_linear_4311_27977)"/>
<defs>
<linearGradient id="paint0_linear_4311_27977" x1="64" y1="297" x2="64" y2="711" gradientUnits="userSpaceOnUse">
<stop stop-color="#4065FA"/>
<stop offset="1" stop-opacity="0.2"/>
</linearGradient>
<linearGradient id="paint1_linear_4311_27977" x1="103" y1="49" x2="103" y2="681" gradientUnits="userSpaceOnUse">
<stop stop-color="white" stop-opacity="0.01"/>
<stop offset="1" stop-opacity="0.05"/>
</linearGradient>
<linearGradient id="paint2_linear_4311_27977" x1="64" y1="470" x2="64" y2="716" gradientUnits="userSpaceOnUse">
<stop stop-color="#233061"/>
<stop offset="1" stop-color="#4065FA"/>
</linearGradient>
<linearGradient id="paint3_linear_4311_27977" x1="64" y1="535.948" x2="577" y2="535.948" gradientUnits="userSpaceOnUse">
<stop stop-color="#AF3B6E" stop-opacity="0.01"/>
<stop offset="1" stop-opacity="0.1"/>
</linearGradient>
<linearGradient id="paint4_linear_4311_27977" x1="245.156" y1="153" x2="245.156" y2="280" gradientUnits="userSpaceOnUse">
<stop stop-color="#FFC62C"/>
<stop offset="1" stop-opacity="0.2"/>
</linearGradient>
<linearGradient id="paint5_linear_4311_27977" x1="257.281" y1="179.018" x2="257.281" y2="280" gradientUnits="userSpaceOnUse">
<stop stop-color="white" stop-opacity="0.01"/>
<stop offset="1" stop-opacity="0.05"/>
</linearGradient>
<linearGradient id="paint6_linear_4311_27977" x1="245.156" y1="196.657" x2="397.062" y2="196.657" gradientUnits="userSpaceOnUse">
<stop stop-color="#AF3B6E" stop-opacity="0.01"/>
<stop offset="1" stop-opacity="0.1"/>
</linearGradient>
<linearGradient id="paint7_linear_4311_27977" x1="237" y1="201.727" x2="237" y2="279.999" gradientUnits="userSpaceOnUse">
<stop stop-color="#FFC62C" stop-opacity="0.01"/>
<stop offset="1" stop-color="#FFC62C"/>
</linearGradient>
</defs>
</svg>
