<svg width="146" height="162" viewBox="0 0 146 162" fill="none" xmlns="http://www.w3.org/2000/svg">
<path fill-rule="evenodd" clip-rule="evenodd" d="M110.284 153.392L99.8555 161.479C99.6799 161.681 99.5095 161.74 99.334 161.74C98.9021 161.74 98.5519 161.39 98.5519 160.957V152.088H96.7269C92.7648 151.634 89.6875 148.255 89.6875 144.262V112.435C89.6875 108.512 92.7648 105.133 96.7269 104.87L137.399 100.957C141.761 100.592 145.571 103.759 146.002 108.001C145.991 108.305 146.002 108.546 146.002 108.783V147.914C146.002 152.304 142.501 155.809 138.181 155.74C137.94 155.809 137.699 155.798 137.399 155.74L110.284 153.392Z" fill="#324CB6"/>
<path fill-rule="evenodd" clip-rule="evenodd" d="M110.284 148.173L99.8555 156.26C99.6799 156.462 99.5095 156.521 99.334 156.521C98.9021 156.521 98.5519 156.171 98.5519 155.739V146.869H96.7269C92.7648 146.415 89.6875 143.036 89.6875 139.043V107.217C89.6875 103.293 92.7648 99.9145 96.7269 99.6513L137.399 95.7383C141.761 95.3735 145.571 98.5405 146.002 102.782C145.991 103.086 146.002 103.327 146.002 103.564V142.695C146.002 147.085 142.501 150.59 138.181 150.521C137.94 150.59 137.699 150.579 137.399 150.521L110.284 148.173Z" fill="#5A79F7"/>
<path fill-rule="evenodd" clip-rule="evenodd" d="M107.688 114.52H112.641L111.859 126.52H108.47L107.688 114.52ZM108.47 132.261C107.924 131.891 107.688 131.33 107.688 130.695C107.688 130.009 107.92 129.456 108.47 129.13C108.849 128.569 109.442 128.348 110.295 128.348C110.887 128.348 111.48 128.569 111.859 129.13C112.409 129.456 112.641 130.009 112.641 130.695C112.641 131.33 112.405 131.891 111.859 132.261C111.459 132.813 110.87 133.043 110.295 133.043C109.459 133.043 108.87 132.813 108.47 132.261ZM120.21 124.173C120.695 123.68 121.294 123.026 122.035 122.347C122.657 121.789 123.081 121.349 123.339 121.042C123.623 120.634 123.758 120.229 123.86 119.738C123.758 119.131 123.501 118.621 123.078 118.173C122.469 117.872 121.783 117.684 120.992 117.651C120.105 117.684 119.376 117.854 118.646 118.173C118.1 118.534 117.562 119.009 117.082 119.738L113.953 117.651C114.687 116.647 115.679 115.785 116.821 115.303C118.178 114.565 119.66 114.26 121.253 114.26C123.383 114.26 124.995 114.687 126.207 115.564C127.424 116.395 128.032 117.58 128.032 119.216C128.032 119.811 127.914 120.438 127.771 121.042C127.442 121.519 127.154 121.976 126.728 122.347C126.472 122.726 126.031 123.157 125.425 123.651C124.842 124.22 124.37 124.704 124.121 125.216C123.776 125.488 123.627 125.963 123.6 126.521H119.689C119.669 125.614 119.874 124.865 120.21 124.173ZM119.938 132.261C119.393 131.891 119.156 131.33 119.156 130.695C119.156 130.009 119.388 129.456 119.938 129.13C120.317 128.569 120.911 128.348 121.503 128.348C122.355 128.348 122.949 128.569 123.328 129.13C123.878 129.456 124.11 130.009 124.11 130.695C124.11 131.33 123.873 131.891 123.328 132.261C122.927 132.813 122.338 133.043 121.503 133.043C120.928 133.043 120.339 132.813 119.938 132.261Z" fill="#324CB6"/>
<path fill-rule="evenodd" clip-rule="evenodd" d="M47.1898 150.001V161.218C47.1898 161.65 46.8396 162.001 46.4076 162.001C46.2321 162.001 46.0617 161.942 45.8862 161.74L38.0647 155.479C34.9308 156.724 31.617 157.349 28.1574 157.305C12.6065 157.349 0 144.725 0 129.131C0 113.581 12.6065 100.957 28.1574 100.957C43.7083 100.957 56.3149 113.581 56.3149 129.131C56.3149 137.377 52.7987 144.778 47.1898 150.001Z" fill="#121832"/>
<path fill-rule="evenodd" clip-rule="evenodd" d="M47.1898 144.782V156C47.1898 156.431 46.8396 156.782 46.4076 156.782C46.2321 156.782 46.0617 156.723 45.8862 156.521L38.0647 150.26C34.9308 151.505 31.617 152.13 28.1574 152.086C12.6065 152.13 0 139.506 0 123.912C0 108.362 12.6065 95.7383 28.1574 95.7383C43.7083 95.7383 56.3149 108.362 56.3149 123.912C56.3149 132.158 52.7987 139.56 47.1898 144.782Z" fill="#4759AB"/>
<path fill-rule="evenodd" clip-rule="evenodd" d="M28.1657 127.302C30.1815 127.302 31.8157 125.667 31.8157 123.65C31.8157 121.633 30.1815 119.998 28.1657 119.998C26.1498 119.998 24.5156 121.633 24.5156 123.65C24.5156 125.667 26.1498 127.302 28.1657 127.302Z" fill="#121832"/>
<path fill-rule="evenodd" clip-rule="evenodd" d="M42.236 127.302C44.2518 127.302 45.886 125.667 45.886 123.65C45.886 121.633 44.2518 119.998 42.236 119.998C40.2201 119.998 38.5859 121.633 38.5859 123.65C38.5859 125.667 40.2201 127.302 42.236 127.302Z" fill="#121832"/>
<path fill-rule="evenodd" clip-rule="evenodd" d="M14.0797 127.302C16.0956 127.302 17.7298 125.667 17.7298 123.65C17.7298 121.633 16.0956 119.998 14.0797 119.998C12.0639 119.998 10.4297 121.633 10.4297 123.65C10.4297 125.667 12.0639 127.302 14.0797 127.302Z" fill="#121832"/>
<path fill-rule="evenodd" clip-rule="evenodd" d="M105.069 72.5764V81.3954C105.069 81.5686 105.011 81.7369 104.905 81.8737C104.64 82.2142 104.149 82.2761 103.807 82.0119L92.5303 73.2831L8.26272 78.033C3.9499 78.2761 0.256128 74.9852 0.0124542 70.6825C0.00415305 70.536 0 70.3892 0 70.2424L0 13.0218C0 8.7123 3.50181 5.21875 7.82151 5.21875C7.96867 5.21875 8.11579 5.22289 8.26272 5.23117L130.8 12.1382C134.941 12.3716 138.18 15.7903 138.18 19.9288V63.3354C138.18 67.4739 134.941 70.8926 130.8 71.126L105.069 72.5764Z" fill="#C4900A"/>
<path fill-rule="evenodd" clip-rule="evenodd" d="M105.069 67.3576V76.1767C105.069 76.3499 105.011 76.5181 104.905 76.655C104.64 76.9955 104.149 77.0573 103.807 76.7932L92.5303 68.0644L8.26272 72.8143C3.9499 73.0574 0.256128 69.7664 0.0124542 65.4638C0.00415305 65.3172 0 65.1704 0 65.0236L0 7.80307C0 3.49355 3.50181 0 7.82151 0C7.96867 0 8.11579 0.00414326 8.26272 0.0124248L130.8 6.91941C134.941 7.15286 138.18 10.5715 138.18 14.7101V58.1166C138.18 62.2551 134.941 65.6738 130.8 65.9073L105.069 67.3576Z" fill="#FFC62C"/>
<path fill-rule="evenodd" clip-rule="evenodd" d="M16.2902 21.3906H74.9515C76.7514 21.3906 78.2105 22.8506 78.2105 24.6515C78.2105 26.4525 76.7514 27.9124 74.9515 27.9124H16.2902C14.4903 27.9124 13.0312 26.4525 13.0312 24.6515C13.0312 22.8506 14.4903 21.3906 16.2902 21.3906Z" fill="#C4900A"/>
<path fill-rule="evenodd" clip-rule="evenodd" d="M16.2902 33.1309H121.881C123.68 33.1309 125.14 34.5908 125.14 36.3917C125.14 38.1927 123.68 39.6526 121.881 39.6526H16.2902C14.4903 39.6526 13.0312 38.1927 13.0312 36.3917C13.0312 34.5908 14.4903 33.1309 16.2902 33.1309Z" fill="#C4900A"/>
<path fill-rule="evenodd" clip-rule="evenodd" d="M16.2902 44.8691H101.023C102.823 44.8691 104.282 46.3291 104.282 48.13C104.282 49.931 102.823 51.3909 101.023 51.3909H16.2902C14.4903 51.3909 13.0312 49.931 13.0312 48.13C13.0312 46.3291 14.4903 44.8691 16.2902 44.8691Z" fill="#C4900A"/>
</svg>
