<svg width="415" height="313" viewBox="0 0 415 313" fill="none" xmlns="http://www.w3.org/2000/svg">
<path fill-rule="evenodd" clip-rule="evenodd" d="M8.10781 168.984C-28.3544 60.0459 66.3247 6.53799 137.533 19.4636C208.695 32.6485 196.84 67.1294 312.601 67.2021C428.14 67.1294 441.042 195.069 375.662 239.541C310.615 284.427 44.4797 277.771 8.10781 168.984Z" fill="#F2F2F4"/>
<mask id="mask0_4300_28069" style="mask-type:luminance" maskUnits="userSpaceOnUse" x="0" y="17" width="415" height="249">
<path fill-rule="evenodd" clip-rule="evenodd" d="M8.10781 168.984C-28.3544 60.0459 66.3247 6.53799 137.533 19.4636C208.695 32.6485 196.84 67.1294 312.601 67.2021C428.14 67.1294 441.042 195.069 375.662 239.541C310.615 284.427 44.4797 277.771 8.10781 168.984Z" fill="white"/>
</mask>
<g mask="url(#mask0_4300_28069)">
<path fill-rule="evenodd" clip-rule="evenodd" d="M175.47 110.437C177.855 110.437 180.086 109.836 182.165 108.633C184.244 107.431 185.895 105.823 187.118 103.809C188.341 101.795 188.952 99.6159 188.952 97.2714C188.952 94.9268 188.341 92.7326 187.118 90.6886C185.895 88.6446 184.244 87.0215 182.165 85.8191C180.086 84.6168 177.855 84.0156 175.47 84.0156C173.085 84.0156 170.869 84.6168 168.82 85.8191C166.772 87.0215 165.136 88.6446 163.913 90.6886C162.691 92.7326 162.079 94.9268 162.079 97.2714C162.079 99.6159 162.691 101.795 163.913 103.809C165.136 105.823 166.772 107.431 168.82 108.633C170.869 109.836 173.085 110.437 175.47 110.437ZM210.24 101.74L219.911 108.979C220.356 109.334 220.615 109.795 220.69 110.363C220.764 110.931 220.653 111.463 220.356 111.96L211.018 127.29C210.722 127.786 210.333 128.106 209.851 128.248C209.369 128.39 208.832 128.354 208.239 128.141L196.789 123.777C193.825 125.835 191.194 127.29 188.897 128.141L187.229 139.745C187.081 140.313 186.803 140.774 186.396 141.129C185.988 141.484 185.525 141.661 185.006 141.661H166.331C165.812 141.661 165.349 141.484 164.941 141.129C164.534 140.774 164.293 140.313 164.219 139.745L162.44 128.141C159.327 126.935 156.734 125.48 154.659 123.777L143.098 128.141C141.912 128.638 140.985 128.354 140.318 127.29L130.981 111.96C130.684 111.463 130.573 110.931 130.647 110.363C130.721 109.795 130.981 109.334 131.425 108.979L141.208 101.74C141.06 100.747 140.985 99.2918 140.985 97.3756C140.985 95.4593 141.06 94.0045 141.208 93.0109L131.425 85.7719C130.981 85.417 130.721 84.9557 130.647 84.3879C130.573 83.8202 130.684 83.2879 130.981 82.7911L140.318 67.4614C140.985 66.3968 141.912 66.113 143.098 66.6098L154.659 70.9745C157.326 69.0582 159.92 67.6034 162.44 66.6098L164.219 55.0061C164.293 54.4383 164.534 53.977 164.941 53.6221C165.349 53.2673 165.812 53.0898 166.331 53.0898H185.006C185.525 53.0898 185.988 53.2673 186.396 53.6221C186.803 53.977 187.081 54.4383 187.229 55.0061L188.897 66.6098C191.787 67.6743 194.418 69.1292 196.789 70.9745L208.239 66.6098C208.832 66.3968 209.369 66.3614 209.851 66.5033C210.333 66.6452 210.722 66.9646 211.018 67.4614L220.356 82.7911C220.653 83.2879 220.764 83.8202 220.69 84.3879C220.615 84.9557 220.356 85.417 219.911 85.7719L210.24 93.0109C210.388 94.0045 210.463 95.4593 210.463 97.3756C210.463 99.2918 210.388 100.747 210.24 101.74Z" fill="#E7E8EA"/>
<path fill-rule="evenodd" clip-rule="evenodd" d="M88.6945 87.7519C91.7348 84.5012 94.0874 80.7811 95.7523 76.5914C97.4173 72.4016 98.2497 67.9953 98.2497 63.3721C98.2497 58.46 97.2906 53.7647 95.3723 49.2861C93.454 44.8074 90.7757 40.8886 87.3373 37.5296C83.8989 34.1706 79.9719 31.6243 75.5562 29.8906V31.841C75.5562 34.297 74.6514 36.3919 72.8417 38.1256C71.032 39.8592 68.8965 40.7261 66.4353 40.7261H57.5317V49.8278C57.5317 51.0559 57.0793 52.1033 56.1744 52.9701C55.2696 53.8369 54.1656 54.2704 52.8627 54.2704H43.959V58.8646H74.6888C75.1858 58.8646 75.5888 59.2675 75.5888 59.7646V81.3589H80.008C81.9625 81.3589 83.736 81.9549 85.3285 83.1468C86.9211 84.3387 88.0431 85.8737 88.6945 87.7519ZM56.4876 98.4884V89.8656C54.0645 89.8656 51.9622 88.9674 50.1805 87.171C48.3988 85.3746 47.508 83.2548 47.508 80.8117V76.3925L26.235 54.9434C25.5223 57.6739 25.166 60.3326 25.166 62.9194C25.166 68.8836 26.5913 74.5242 29.442 79.8416C32.1501 84.8716 35.8916 89.0572 40.6665 92.3986C45.4413 95.7399 50.715 97.7698 56.4876 98.4884ZM61.559 17.6621C69.7882 17.6621 77.4036 19.719 84.4056 23.833C91.191 27.7303 96.5326 33.0711 100.431 39.8555C104.545 46.8564 106.602 54.4706 106.602 62.6984C106.602 70.9263 104.545 78.5405 100.431 85.5414C96.5326 92.3257 91.191 97.6665 84.4056 101.564C77.4036 105.678 69.7882 107.735 61.559 107.735C53.3299 107.735 45.7145 105.678 38.7125 101.564C31.9271 97.5943 26.5854 92.2175 22.6874 85.4331C18.5729 78.4322 16.5156 70.8541 16.5156 62.6984C16.5156 54.5428 18.5729 46.9646 22.6874 39.9637C26.6576 33.1794 32.0354 27.8025 38.8208 23.833C45.8228 19.719 53.4021 17.6621 61.559 17.6621Z" fill="#E7E8EA"/>
<path fill-rule="evenodd" clip-rule="evenodd" d="M318.106 190.152C318.106 190.069 318.174 190.002 318.256 190.002H330.969C331.052 190.002 331.119 190.069 331.119 190.152V198.109H368.154V190.152C368.154 190.069 368.221 190.002 368.304 190.002H381.017C381.1 190.002 381.167 190.069 381.167 190.152V198.109H390.676C393.164 198.109 395.181 199.924 395.181 202.163V267.015C395.181 269.254 393.164 271.068 390.676 271.068H309.598C307.11 271.068 305.094 269.254 305.094 267.015V202.163C305.094 199.924 307.11 198.109 309.598 198.109H318.106V190.152ZM316.104 208.078C316.104 208.044 316.131 208.018 316.164 208.018H384.777C384.811 208.018 384.837 208.044 384.837 208.078V261.701C384.837 261.734 384.811 261.761 384.777 261.761H316.164C316.131 261.761 316.104 261.734 316.104 261.701V208.078ZM328.116 217.926H337.125V226.032H328.116V217.926ZM354.141 217.926H345.133V226.032H354.141V217.926ZM364.15 217.926H373.159V226.032H364.15V217.926ZM337.125 234.139H328.116V242.245H337.125V234.139ZM345.133 234.139H354.141V242.245H345.133V234.139ZM373.159 234.139H364.15V242.245H373.159V234.139Z" fill="#E7E8EA"/>
<path fill-rule="evenodd" clip-rule="evenodd" d="M330.918 51.5898C339.148 51.5898 346.763 53.6468 353.765 57.7607C360.55 61.6581 365.892 66.9989 369.79 73.7832C373.905 80.7841 375.962 88.3983 375.962 96.6262C375.962 104.854 373.905 112.468 369.79 119.469C365.892 126.253 360.55 131.594 353.765 135.492C346.763 139.606 339.148 141.662 330.918 141.662C322.689 141.662 315.074 139.606 308.072 135.492C301.286 131.522 295.945 126.145 292.047 119.361C287.932 112.36 285.875 104.782 285.875 96.6262C285.875 88.4705 287.932 80.8924 292.047 73.8915C296.017 67.1071 301.395 61.7303 308.18 57.7607C315.182 53.6468 322.761 51.5898 330.918 51.5898ZM334.429 96.881L351.344 106.844C353.467 108.095 354.175 110.812 352.928 112.928C351.697 115.017 348.992 115.72 346.887 114.498C346.856 114.479 325.313 101.498 325.313 101.498V77.2822C325.313 74.7845 327.354 72.7598 329.871 72.7598C332.388 72.7598 334.429 74.7845 334.429 77.2822V96.881Z" fill="#E7E8EA"/>
<path fill-rule="evenodd" clip-rule="evenodd" d="M259.063 199.756C261.138 199.756 262.894 199.038 264.33 197.602C265.767 196.165 266.485 194.37 266.485 192.216C266.485 190.061 265.767 188.286 264.33 186.889C262.894 185.493 261.138 184.795 259.063 184.795C256.988 184.795 255.213 185.513 253.736 186.949C252.26 188.386 251.521 190.141 251.521 192.216C251.521 194.29 252.24 196.066 253.676 197.542C255.113 199.018 256.908 199.756 259.063 199.756ZM244.099 180.215C246.174 180.215 247.93 179.497 249.366 178.061C250.803 176.624 251.521 174.829 251.521 172.675C251.521 170.52 250.803 168.745 249.366 167.348C247.93 165.952 246.174 165.254 244.099 165.254C242.024 165.254 240.249 165.972 238.772 167.408C237.296 168.845 236.558 170.6 236.558 172.675C236.558 174.749 237.276 176.525 238.712 178.001C240.149 179.477 241.944 180.215 244.099 180.215ZM219.67 180.215C221.745 180.215 223.5 179.497 224.937 178.061C226.373 176.624 227.092 174.829 227.092 172.675C227.092 170.52 226.373 168.745 224.937 167.348C223.5 165.952 221.745 165.254 219.67 165.254C217.595 165.254 215.819 165.972 214.343 167.408C212.866 168.845 212.128 170.6 212.128 172.675C212.128 174.749 212.846 176.525 214.283 178.001C215.719 179.477 217.515 180.215 219.67 180.215ZM204.706 199.756C206.781 199.756 208.536 199.038 209.973 197.602C211.409 196.165 212.128 194.37 212.128 192.216C212.128 190.061 211.409 188.286 209.973 186.889C208.536 185.493 206.781 184.795 204.706 184.795C202.631 184.795 200.855 185.513 199.379 186.949C197.902 188.386 197.164 190.141 197.164 192.216C197.164 194.29 197.882 196.066 199.319 197.542C200.755 199.018 202.551 199.756 204.706 199.756ZM231.825 154.873C239.993 154.873 247.56 156.715 254.527 160.398C261.333 163.92 266.738 168.724 270.742 174.809C274.826 180.974 276.868 187.699 276.868 194.985C276.868 199.469 275.747 203.632 273.505 207.475C271.263 211.319 268.22 214.341 264.376 216.543C260.532 218.745 256.328 219.845 251.764 219.845H243.116C241.034 219.845 239.252 220.566 237.77 222.007C236.289 223.448 235.548 225.21 235.548 227.291C235.548 229.133 236.189 230.774 237.47 232.215C238.031 232.856 238.491 233.657 238.851 234.617C239.212 235.578 239.392 236.499 239.392 237.38C239.392 239.541 238.651 241.343 237.17 242.784C235.688 244.225 233.907 244.946 231.825 244.946C223.657 244.946 216.09 242.904 209.123 238.821C202.316 234.817 196.911 229.413 192.907 222.608C188.823 215.642 186.781 208.076 186.781 199.909C186.781 191.743 188.823 184.177 192.907 177.211C196.911 170.406 202.316 165.001 209.123 160.998C216.09 156.915 223.657 154.873 231.825 154.873Z" fill="#E7E8EA"/>
<path fill-rule="evenodd" clip-rule="evenodd" d="M109.907 190.001C109.907 165.141 89.7277 144.965 64.8637 144.965C39.9998 144.965 19.8203 165.141 19.8203 190.001C19.8203 214.861 39.9998 235.037 64.8637 235.037C89.7277 235.037 109.907 214.861 109.907 190.001ZM79.5883 175.903L58.7385 196.76C58.7385 196.76 50.8637 188.929 50.8332 188.901C48.9493 187.133 45.9482 187.185 44.1299 189.016L43.9542 189.193C42.1697 190.99 42.1822 193.841 43.9825 195.623L58.7385 210.267L86.5905 182.586C88.4018 180.793 88.4018 177.921 86.5905 176.128C86.5905 176.128 86.3168 175.857 86.2949 175.836C84.4239 174.055 81.4212 174.085 79.5883 175.903Z" fill="#E7E8EA"/>
</g>
<path fill-rule="evenodd" clip-rule="evenodd" d="M145.321 307.449C149.785 300.523 189.921 296.49 217.527 296.49C245.187 296.49 264.359 303.674 239.486 308.42C214.757 313.167 141.217 314.356 145.321 307.449Z" fill="#E7E8EA"/>
<path fill-rule="evenodd" clip-rule="evenodd" d="M166.694 265.068C163.73 269.931 159.539 285.035 159.539 288.95C159.539 292.865 172.125 288.548 174.525 278.44C176.924 268.333 179.314 271.891 179.314 266.641C179.314 261.391 169.658 260.205 166.694 265.068Z" fill="#5678FB"/>
<path fill-rule="evenodd" clip-rule="evenodd" d="M166.694 265.068C163.73 269.931 159.539 285.035 159.539 288.95C159.539 292.865 172.125 288.548 174.525 278.44C176.924 268.333 179.314 271.891 179.314 266.641C179.314 261.391 169.658 260.205 166.694 265.068Z" fill="url(#paint0_linear_4300_28069)"/>
<path fill-rule="evenodd" clip-rule="evenodd" d="M218.565 265.083C216.292 270.73 219.16 283.796 224.609 289.789C230.059 295.781 235.539 283.929 233.541 281.279C231.542 278.629 226.813 273.435 226.813 266.327C226.813 259.219 220.838 259.436 218.565 265.083Z" fill="#5678FB"/>
<path fill-rule="evenodd" clip-rule="evenodd" d="M218.565 265.083C216.292 270.73 219.16 283.796 224.609 289.789C230.059 295.781 235.539 283.929 233.541 281.279C231.542 278.629 226.813 273.435 226.813 266.327C226.813 259.219 220.838 259.436 218.565 265.083Z" fill="url(#paint1_linear_4300_28069)"/>
<path fill-rule="evenodd" clip-rule="evenodd" d="M207.714 103.156C213.663 110.388 208.401 131.44 212.388 136.576C216.706 141.616 225.79 147.463 230.006 157.778C234.111 168.217 205.674 146.84 203.04 143.045C200.068 138.937 201.988 96.092 207.714 103.156Z" fill="#5678FB"/>
<path fill-rule="evenodd" clip-rule="evenodd" d="M207.714 103.156C213.663 110.388 208.401 131.44 212.388 136.576C216.706 141.616 225.79 147.463 230.006 157.778C234.111 168.217 205.674 146.84 203.04 143.045C200.068 138.937 201.988 96.092 207.714 103.156Z" fill="url(#paint2_linear_4300_28069)"/>
<path fill-rule="evenodd" clip-rule="evenodd" d="M207.714 103.156C213.663 110.388 208.401 131.44 212.388 136.576C216.706 141.616 225.79 147.463 230.006 157.778C234.111 168.217 205.674 146.84 203.04 143.045C200.068 138.937 201.988 96.092 207.714 103.156Z" fill="url(#paint3_linear_4300_28069)"/>
<path fill-rule="evenodd" clip-rule="evenodd" d="M172.483 144.123C163.183 161.045 158.82 184.728 158.82 203.544C158.82 222.36 164.493 265.23 164.493 265.23C164.493 265.23 165.726 268.819 171.914 268.819C178.102 268.819 179.256 265.23 179.256 265.23C179.256 265.23 182.301 231.176 182.301 220.56C182.301 209.944 188.158 172.868 191.115 172.868C194.071 172.868 200.908 202.934 204.794 220.56C208.68 238.187 216.724 265.23 216.724 265.23C216.724 265.23 217.536 268.819 223.532 268.819C229.529 268.819 230.73 265.23 230.73 265.23C230.73 265.23 228.06 198.269 223.532 178.948C219.489 161.692 209.517 144.123 209.517 144.123C209.517 144.123 181.783 127.2 172.483 144.123Z" fill="#233061"/>
<path fill-rule="evenodd" clip-rule="evenodd" d="M172.483 144.123C163.183 161.045 158.82 184.728 158.82 203.544C158.82 222.36 164.493 265.23 164.493 265.23C164.493 265.23 165.726 268.819 171.914 268.819C178.102 268.819 179.256 265.23 179.256 265.23C179.256 265.23 182.301 231.176 182.301 220.56C182.301 209.944 188.158 172.868 191.115 172.868C194.071 172.868 200.908 202.934 204.794 220.56C208.68 238.187 216.724 265.23 216.724 265.23C216.724 265.23 217.536 268.819 223.532 268.819C229.529 268.819 230.73 265.23 230.73 265.23C230.73 265.23 228.06 198.269 223.532 178.948C219.489 161.692 209.517 144.123 209.517 144.123C209.517 144.123 181.783 127.2 172.483 144.123Z" fill="url(#paint4_linear_4300_28069)"/>
<path fill-rule="evenodd" clip-rule="evenodd" d="M177.141 109.868C159.155 107.106 132.749 84.545 147.449 55.3513C162.15 26.1576 185.73 43.1266 199.317 18.1161C212.905 -6.89434 244.972 -3.73678 260.4 13.8009C275.828 31.3386 275.828 58.6053 250.93 84.111C226.031 109.617 195.127 112.63 177.141 109.868Z" fill="#232F61"/>
<path fill-rule="evenodd" clip-rule="evenodd" d="M177.141 109.868C159.155 107.106 132.749 84.545 147.449 55.3513C162.15 26.1576 185.73 43.1266 199.317 18.1161C212.905 -6.89434 244.972 -3.73678 260.4 13.8009C275.828 31.3386 275.828 58.6053 250.93 84.111C226.031 109.617 195.127 112.63 177.141 109.868Z" fill="url(#paint5_linear_4300_28069)"/>
<path fill-rule="evenodd" clip-rule="evenodd" d="M267.581 59.2441C264.415 67.4589 258.971 75.8767 250.933 84.111C234.956 100.478 216.505 107.583 200.582 109.844C183.828 105.734 171.465 96.252 173.759 78.4135C179.329 35.0907 240.483 103.547 267.581 59.2441V59.2441Z" fill="url(#paint6_linear_4300_28069)"/>
<mask id="mask1_4300_28069" style="mask-type:luminance" maskUnits="userSpaceOnUse" x="173" y="59" width="95" height="51">
<path fill-rule="evenodd" clip-rule="evenodd" d="M267.581 59.2441C264.415 67.4589 258.971 75.8767 250.933 84.111C234.956 100.478 216.505 107.583 200.582 109.844C183.828 105.734 171.465 96.252 173.759 78.4135C179.329 35.0907 240.483 103.547 267.581 59.2441V59.2441Z" fill="white"/>
</mask>
<g mask="url(#mask1_4300_28069)">
</g>
<path fill-rule="evenodd" clip-rule="evenodd" d="M172.482 144.122C176.271 136.59 176.82 137.911 173.92 129.748C171.649 121.376 168.164 120.76 166.37 110.702C165.161 100.841 174.645 90.6742 186.864 96.6871C198.845 102.74 197.528 98.8176 204.842 102.077C212.189 105.62 210.922 113.355 207.718 121.123C204.322 128.904 204.21 136.439 209.516 144.122C214.302 151.862 168.905 151.711 172.482 144.122Z" fill="#5678FB"/>
<path fill-rule="evenodd" clip-rule="evenodd" d="M172.482 144.122C176.271 136.59 176.82 137.911 173.92 129.748C171.649 121.376 168.164 120.76 166.37 110.702C165.161 100.841 174.645 90.6742 186.864 96.6871C198.845 102.74 197.528 98.8176 204.842 102.077C212.189 105.62 210.922 113.355 207.718 121.123C204.322 128.904 204.21 136.439 209.516 144.122C214.302 151.862 168.905 151.711 172.482 144.122Z" fill="url(#paint7_linear_4300_28069)"/>
<rect x="186.141" y="85.9062" width="10.427" height="19.0459" rx="5.21348" fill="#FFC62C"/>
<rect x="186.141" y="85.9062" width="10.427" height="19.0459" rx="5.21348" fill="url(#paint8_linear_4300_28069)"/>
<path fill-rule="evenodd" clip-rule="evenodd" d="M170.997 82.3268C169.681 82.2379 168.3 80.9499 168.3 77.5527C168.3 73.1422 165.016 71.7557 165.016 68.8095C165.016 65.8632 168.133 64.6543 169.742 66.6089C171.175 63.3627 173.676 64.5123 184.473 61.6238C195.269 58.7353 199.492 50.7446 208.431 54.5915C208.489 56.2893 208.431 61.7621 208.431 63.6384C208.431 65.3326 210.592 67.5731 210.592 75.4926C210.592 83.3386 202.289 94.1718 192.943 94.1718C186.173 94.1718 175.205 90.2747 170.997 82.3268Z" fill="#FFC62C"/>
<path fill-rule="evenodd" clip-rule="evenodd" d="M170.997 82.3268C169.681 82.2379 168.3 80.9499 168.3 77.5527C168.3 73.1422 165.016 71.7557 165.016 68.8095C165.016 65.8632 168.133 64.6543 169.742 66.6089C171.175 63.3627 173.676 64.5123 184.473 61.6238C195.269 58.7353 199.492 50.7446 208.431 54.5915C208.489 56.2893 208.431 61.7621 208.431 63.6384C208.431 65.3326 210.592 67.5731 210.592 75.4926C210.592 83.3386 202.289 94.1718 192.943 94.1718C186.173 94.1718 175.205 90.2747 170.997 82.3268Z" fill="url(#paint9_linear_4300_28069)"/>
<path fill-rule="evenodd" clip-rule="evenodd" d="M196.644 64.7255C190.214 68.1056 175.09 70.2263 169.695 62.6695C171.466 61.4075 175.188 64.1084 184.475 61.6238C195.272 58.7353 199.495 50.7446 208.433 54.5915C208.48 55.9549 208.452 59.7525 208.439 62.1673C206.253 62.1796 203.074 61.3453 196.644 64.7255Z" fill="url(#paint10_linear_4300_28069)"/>
<path fill-rule="evenodd" clip-rule="evenodd" d="M170.996 118.937C160.543 113.862 169.533 81.1318 170.996 68.7495C172.46 56.3671 174.575 36.2708 174.575 32.1342C174.575 27.9976 182.907 27.3115 182.907 32.1342C182.907 36.9569 181.45 59.3798 181.45 68.7495C181.45 78.1191 181.45 124.012 170.996 118.937Z" fill="#5678FB"/>
<path fill-rule="evenodd" clip-rule="evenodd" d="M170.996 118.937C160.543 113.862 169.533 81.1318 170.996 68.7495C172.46 56.3671 174.575 36.2708 174.575 32.1342C174.575 27.9976 182.907 27.3115 182.907 32.1342C182.907 36.9569 181.45 59.3798 181.45 68.7495C181.45 78.1191 181.45 124.012 170.996 118.937Z" fill="url(#paint11_linear_4300_28069)"/>
<path fill-rule="evenodd" clip-rule="evenodd" d="M174.642 31.644C174.642 27.2782 171.919 24.1886 165.612 25.0453C159.305 25.902 155.809 27.2275 156.844 25.0453C157.351 23.9749 160.257 21.9446 166.338 20.9833C168.522 20.6381 175.701 21.4249 175.701 21.4249C175.701 21.4249 179.708 19.9918 182.563 20.9833C185.419 21.9748 189.44 18.6734 191.311 20.9833C193.182 23.2932 182.204 24.0023 182.563 26.4246C182.923 28.847 182.923 30.9595 182.923 32.7667C182.923 34.5739 174.642 36.0097 174.642 31.644Z" fill="#FFC62C"/>
<path fill-rule="evenodd" clip-rule="evenodd" d="M174.642 31.644C174.642 27.2782 171.919 24.1886 165.612 25.0453C159.305 25.902 155.809 27.2275 156.844 25.0453C157.351 23.9749 160.257 21.9446 166.338 20.9833C168.522 20.6381 175.701 21.4249 175.701 21.4249C175.701 21.4249 179.708 19.9918 182.563 20.9833C185.419 21.9748 189.44 18.6734 191.311 20.9833C193.182 23.2932 182.204 24.0023 182.563 26.4246C182.923 28.847 182.923 30.9595 182.923 32.7667C182.923 34.5739 174.642 36.0097 174.642 31.644Z" fill="url(#paint12_linear_4300_28069)"/>
<path fill-rule="evenodd" clip-rule="evenodd" d="M223.854 158.585C228.725 162.529 231.914 162.492 230.317 167.94C228.72 173.387 225.293 173.616 226.806 175.437C228.319 177.258 231.944 170.504 235.898 169.606C239.853 168.709 251.614 170.306 253.295 167.94C254.975 165.573 251.937 164.792 244.06 163.882C236.183 162.972 228.467 153.706 226.107 150.909C224.472 148.971 220.75 156.071 223.854 158.585Z" fill="#FFC62C"/>
<path fill-rule="evenodd" clip-rule="evenodd" d="M223.854 158.585C228.725 162.529 231.914 162.492 230.317 167.94C228.72 173.387 225.293 173.616 226.806 175.437C228.319 177.258 231.944 170.504 235.898 169.606C239.853 168.709 251.614 170.306 253.295 167.94C254.975 165.573 251.937 164.792 244.06 163.882C236.183 162.972 228.467 153.706 226.107 150.909C224.472 148.971 220.75 156.071 223.854 158.585Z" fill="url(#paint13_linear_4300_28069)"/>
<path fill-rule="evenodd" clip-rule="evenodd" d="M186.141 93.1523C188.585 93.8336 190.946 94.1722 192.942 94.1722C194.174 94.1722 195.388 93.9839 196.568 93.6389V97.2324C195.388 97.5774 194.174 97.7658 192.942 97.7658C190.946 97.7658 188.585 97.4271 186.141 96.7459V93.1523L186.141 93.1523Z" fill="url(#paint14_linear_4300_28069)"/>
<defs>
<linearGradient id="paint0_linear_4300_28069" x1="159.539" y1="261.992" x2="159.539" y2="290.381" gradientUnits="userSpaceOnUse">
<stop stop-color="#A7A7EE" stop-opacity="0.01"/>
<stop offset="1" stop-color="#4C55A0" stop-opacity="0.2"/>
</linearGradient>
<linearGradient id="paint1_linear_4300_28069" x1="217.781" y1="260.914" x2="217.781" y2="291.459" gradientUnits="userSpaceOnUse">
<stop stop-color="#A7A7EE" stop-opacity="0.01"/>
<stop offset="1" stop-color="#4C55A0" stop-opacity="0.2"/>
</linearGradient>
<linearGradient id="paint2_linear_4300_28069" x1="201.602" y1="102.438" x2="201.602" y2="160.653" gradientUnits="userSpaceOnUse">
<stop stop-color="#A7A7EE" stop-opacity="0.01"/>
<stop offset="1" stop-color="#4C55A0" stop-opacity="0.2"/>
</linearGradient>
<linearGradient id="paint3_linear_4300_28069" x1="204.043" y1="154.605" x2="229.718" y2="155.306" gradientUnits="userSpaceOnUse">
<stop stop-color="#464D89" stop-opacity="0.6"/>
<stop offset="1" stop-color="#A7A7EE" stop-opacity="0.01"/>
</linearGradient>
<linearGradient id="paint4_linear_4300_28069" x1="158.82" y1="136.602" x2="158.82" y2="268.819" gradientUnits="userSpaceOnUse">
<stop stop-color="#403F9F" stop-opacity="0.01"/>
<stop offset="1" stop-opacity="0.2"/>
</linearGradient>
<linearGradient id="paint5_linear_4300_28069" x1="143.164" y1="0" x2="143.164" y2="110.703" gradientUnits="userSpaceOnUse">
<stop stop-color="#403F9F" stop-opacity="0.01"/>
<stop offset="1" stop-opacity="0.2"/>
</linearGradient>
<linearGradient id="paint6_linear_4300_28069" x1="126.436" y1="84.544" x2="168.649" y2="163.044" gradientUnits="userSpaceOnUse">
<stop stop-opacity="0.3"/>
<stop offset="1" stop-color="#1F1845" stop-opacity="0.01"/>
</linearGradient>
<linearGradient id="paint7_linear_4300_28069" x1="166.266" y1="94.8867" x2="166.266" y2="149.871" gradientUnits="userSpaceOnUse">
<stop stop-color="#A7A7EE" stop-opacity="0.01"/>
<stop offset="1" stop-color="#4C55A0" stop-opacity="0.2"/>
</linearGradient>
<linearGradient id="paint8_linear_4300_28069" x1="186.141" y1="85.9062" x2="186.141" y2="104.952" gradientUnits="userSpaceOnUse">
<stop stop-color="#FFC62C" stop-opacity="0.01"/>
<stop offset="1" stop-color="#FF6663" stop-opacity="0.1"/>
</linearGradient>
<linearGradient id="paint9_linear_4300_28069" x1="165.016" y1="53.5645" x2="165.016" y2="94.1718" gradientUnits="userSpaceOnUse">
<stop stop-color="#FFC62C" stop-opacity="0.01"/>
<stop offset="1" stop-color="#FF6663" stop-opacity="0.1"/>
</linearGradient>
<linearGradient id="paint10_linear_4300_28069" x1="189.077" y1="46.4472" x2="179.865" y2="71.5334" gradientUnits="userSpaceOnUse">
<stop stop-opacity="0.2"/>
<stop offset="1" stop-color="#FFC42C" stop-opacity="0.01"/>
</linearGradient>
<linearGradient id="paint11_linear_4300_28069" x1="166.008" y1="28.7695" x2="166.008" y2="119.328" gradientUnits="userSpaceOnUse">
<stop stop-color="#A7A7EE" stop-opacity="0.01"/>
<stop offset="1" stop-color="#4C55A0" stop-opacity="0.2"/>
</linearGradient>
<linearGradient id="paint12_linear_4300_28069" x1="156.664" y1="20.1445" x2="156.664" y2="34.5217" gradientUnits="userSpaceOnUse">
<stop stop-color="#FFC62C" stop-opacity="0.01"/>
<stop offset="1" stop-color="#FF6663" stop-opacity="0.1"/>
</linearGradient>
<linearGradient id="paint13_linear_4300_28069" x1="222.656" y1="150.578" x2="222.656" y2="175.747" gradientUnits="userSpaceOnUse">
<stop stop-color="#FFC62C" stop-opacity="0.01"/>
<stop offset="1" stop-color="#FF6663" stop-opacity="0.1"/>
</linearGradient>
<linearGradient id="paint14_linear_4300_28069" x1="202.28" y1="95.9006" x2="199.063" y2="87.9342" gradientUnits="userSpaceOnUse">
<stop stop-opacity="0.2"/>
<stop offset="1" stop-color="#FFC42C" stop-opacity="0.01"/>
</linearGradient>
</defs>
</svg>
